<svg width="79" height="79" viewBox="0 0 79 79" fill="none" xmlns="http://www.w3.org/2000/svg">
<circle cx="39.5" cy="39.5" r="37.5" fill="white" stroke="#F37335" stroke-width="3"/>
<path fill-rule="evenodd" clip-rule="evenodd" d="M61.0238 40.7938C60.5738 36.3665 58.5516 32.1926 55.3296 29.0409C52.5761 26.3478 49.2058 24.6171 45.6595 23.8475V21.4147C47.1079 21.0622 48.1846 19.7798 48.1846 18.2555C48.1846 16.4604 46.6915 15 44.8562 15H37.8079C35.9726 15 34.4795 16.4604 34.4795 18.2555C34.4795 19.7797 35.5562 21.0621 37.0045 21.4147V23.8543C33.4691 24.6271 30.11 26.3554 27.3643 29.041C26.7634 29.6288 26.2093 30.2453 25.7022 30.8861L25.7021 30.8861C25.6776 30.8843 25.653 30.8824 25.628 30.8824H18.652C18.1114 30.8824 17.6731 31.3111 17.6731 31.8399C17.6731 32.3688 18.1114 32.7975 18.652 32.7975H24.3701C23.6524 33.9728 23.0736 35.2071 22.6331 36.4778H11.9789C11.4384 36.4778 11 36.9064 11 37.4353C11 37.9641 11.4384 38.3928 11.9789 38.3928H22.0799C21.7978 39.6041 21.6359 40.8369 21.5941 42.0732H17.2652C16.7246 42.0732 16.2862 42.5018 16.2862 43.0307C16.2862 43.5595 16.7246 43.9882 17.2652 43.9882H21.6253C21.7079 45.2276 21.9116 46.4605 22.2366 47.6686H15.8947C15.3541 47.6686 14.9157 48.0973 14.9157 48.6261C14.9157 49.1549 15.3541 49.5836 15.8947 49.5836H22.8613C23.8216 52.0684 25.3224 54.3974 27.3643 56.3946C30.5895 59.5492 34.8611 61.5276 39.3922 61.9655C40.0389 62.0279 40.6861 62.0588 41.3324 62.0588C45.1523 62.0588 48.9238 60.9775 52.1239 58.9392C52.5769 58.6506 52.7051 58.0574 52.41 57.6142C52.115 57.1711 51.5085 57.0458 51.0555 57.3344C44.0505 61.7961 34.6692 60.8314 28.7487 55.0405C21.802 48.2458 21.802 37.19 28.7487 30.3953C35.6953 23.6007 46.9983 23.6007 53.9451 30.3953C59.8577 36.1786 60.8494 45.3469 56.3029 52.1952C56.0085 52.6387 56.1374 53.2318 56.5907 53.5197C57.0444 53.8078 57.6505 53.6816 57.9449 53.2381C60.374 49.579 61.4675 45.1596 61.0238 40.7938ZM36.4371 18.2556C36.4371 17.5164 37.0519 16.915 37.8076 16.915H44.8559C45.6116 16.915 46.2264 17.5164 46.2264 18.2556C46.2264 18.9948 45.6116 19.5961 44.8559 19.5961H44.6803H37.9831H37.8076C37.0519 19.5961 36.4371 18.9947 36.4371 18.2556ZM38.962 21.5111V23.525C40.5355 23.3396 42.1276 23.3385 43.7013 23.5216V21.5111H38.962Z" fill="#F37335"/>
<path d="M55.3374 55.4706C55.0829 55.4706 54.8352 55.5713 54.656 55.7463C54.4758 55.9214 54.3735 56.1642 54.3735 56.4118C54.3735 56.6593 54.4758 56.9021 54.656 57.0772C54.8352 57.2532 55.083 57.3529 55.3374 57.3529C55.5909 57.3529 55.8386 57.2532 56.0188 57.0772C56.1981 56.9021 56.3012 56.6593 56.3012 56.4118C56.3012 56.1642 56.1982 55.9214 56.0188 55.7463C55.8386 55.5713 55.5908 55.4706 55.3374 55.4706Z" fill="#F37335"/>
<path fill-rule="evenodd" clip-rule="evenodd" d="M25.4575 43.2352C25.4575 34.9317 32.3757 28.1764 40.8792 28.1764C49.3827 28.1764 56.3009 34.9317 56.3009 43.2352C56.3009 51.5387 49.3827 58.294 40.8792 58.294C32.3757 58.294 25.4575 51.5387 25.4575 43.2352ZM27.4461 43.2352C27.4461 50.4681 33.4723 56.3526 40.8796 56.3526C48.2869 56.3526 54.313 50.4681 54.313 43.2352C54.313 36.0023 48.2869 30.1178 40.8796 30.1178C33.4723 30.1178 27.4461 36.0023 27.4461 43.2352Z" fill="#F37335"/>
<path fill-rule="evenodd" clip-rule="evenodd" d="M42.8116 39.6398L47.8258 35.0368C48.2214 34.6739 48.8622 34.6739 49.2575 35.0368C49.6529 35.3997 49.6529 35.9882 49.2575 36.3511L49.1104 36.4862L44.2434 40.9541C44.4507 41.339 44.5679 41.772 44.5679 42.2297C44.5679 43.8221 43.1567 45.1176 41.422 45.1176C39.6873 45.1176 38.2762 43.8221 38.2762 42.2297C38.2762 41.772 38.3932 41.339 38.6007 40.9541L36.3566 38.894C35.9612 38.5311 35.9612 37.9426 36.3566 37.5797C36.7521 37.2168 37.3929 37.2168 37.7883 37.5797L40.0325 39.6398C40.4518 39.4495 40.9233 39.342 41.422 39.342C41.9206 39.342 42.3923 39.4495 42.8116 39.6398ZM40.301 42.2298C40.301 42.7973 40.8039 43.259 41.4221 43.259C42.0402 43.259 42.5432 42.7973 42.5432 42.2298C42.5432 41.6624 42.0402 41.2007 41.4221 41.2007C40.8039 41.2007 40.301 41.6624 40.301 42.2298Z" fill="#F37335"/>
<path d="M52.7509 41.3529H52.1406C51.7769 41.3529 51.4819 41.7743 51.4819 42.2941C51.4819 42.8139 51.7769 43.2353 52.1406 43.2353H52.7509C53.1147 43.2353 53.4096 42.8139 53.4096 42.2941C53.4096 41.7743 53.1147 41.3529 52.7509 41.3529Z" fill="#F37335"/>
<path d="M31.5458 41.3529H30.9356C30.5718 41.3529 30.2769 41.7743 30.2769 42.2941C30.2769 42.8139 30.5718 43.2353 30.9356 43.2353H31.5458C31.9096 43.2353 32.2046 42.8139 32.2046 42.2941C32.2046 41.7743 31.9096 41.3529 31.5458 41.3529Z" fill="#F37335"/>
<path d="M41.8432 33.8235C42.3755 33.8235 42.8071 33.5355 42.8071 33.1803V32.5844C42.8071 32.2291 42.3755 31.9412 41.8432 31.9412C41.311 31.9412 40.8794 32.2291 40.8794 32.5844V33.1803C40.8794 33.5355 41.311 33.8235 41.8432 33.8235Z" fill="#F37335"/>
<path d="M41.8432 51.7058C41.311 51.7058 40.8794 51.9938 40.8794 52.349V52.9449C40.8794 53.3002 41.311 53.5882 41.8432 53.5882C42.3755 53.5882 42.8071 53.3002 42.8071 52.9449V52.349C42.8071 51.9938 42.3755 51.7058 41.8432 51.7058Z" fill="#F37335"/>
<path d="M11.9639 48.8823C11.7104 48.8823 11.4617 48.983 11.2824 49.1581C11.1031 49.3331 11 49.576 11 49.8235C11 50.072 11.103 50.3139 11.2824 50.4889C11.4618 50.664 11.7104 50.7647 11.9639 50.7647C12.2173 50.7647 12.466 50.664 12.6452 50.4889C12.8245 50.3139 12.9277 50.071 12.9277 49.8235C12.9277 49.576 12.8246 49.3331 12.6452 49.1581C12.466 48.983 12.2173 48.8823 11.9639 48.8823Z" fill="#F37335"/>
</svg>
