<svg width="79" height="80" viewBox="0 0 79 80" fill="none" xmlns="http://www.w3.org/2000/svg">
<ellipse cx="39.5" cy="40" rx="37.5" ry="38" fill="white" stroke="#FBB731" stroke-width="3"/>
<path fill-rule="evenodd" clip-rule="evenodd" d="M13.8853 29.2361C11.2186 32.6453 9.86483 36.8423 10.0116 41.1693C10.0048 41.2205 10 41.2724 10 41.3259V48.2992C10 48.3373 10.002 48.3754 10.0056 48.4133C10.4752 53.1694 12.7112 57.4885 16.3015 60.5748C19.6211 63.4283 23.8518 64.9998 28.2143 64.9998C29.2763 64.9992 31.2719 64.9991 33.6114 64.9991C34.2477 64.9991 34.7637 64.481 34.7637 63.8421C34.7637 63.2033 34.2477 62.6852 33.6114 62.6852C31.2714 62.6852 29.2753 62.6853 28.2238 62.6859C24.401 62.6859 20.7028 61.3119 17.8004 58.8172C15.1299 56.5217 13.3179 53.4434 12.5844 50.0124C13.5863 51.698 14.8605 53.224 16.3782 54.5287C19.6931 57.3782 23.9177 58.9473 28.2741 58.9473C30.5193 58.946 37.0265 58.9464 42.0229 58.9472L47.114 58.9475H47.1141C53.0176 58.9475 58.552 56.6231 62.6976 52.4025C64.0178 51.0583 65.1436 49.5747 66.0635 47.9858C65.2081 51.2891 63.5011 54.323 61.0476 56.8209C57.3325 60.6031 52.373 62.6861 47.0826 62.6861L42.8303 62.6858C42.1939 62.6858 41.6779 63.2037 41.6779 63.8426C41.6779 64.4816 42.1938 64.9997 42.8301 64.9997L47.0825 65C52.9947 65 58.537 62.6722 62.6886 58.4455C66.8376 54.2215 69.078 48.6268 68.9979 42.6914V37.5792C68.9979 37.5448 68.9957 37.5109 68.9929 37.4774C68.9987 37.2064 69.0016 36.9349 68.9978 36.6623C68.832 24.7177 59.0146 15 47.113 15L46.9904 15.0002C42.4584 15.0255 38.1155 16.4308 34.4316 19.0641C31.9064 20.8692 29.0616 21.9963 26.2045 22.3236C21.3083 22.8845 16.9333 25.3394 13.8853 29.2361ZM28.2836 56.6333C24.467 56.6333 20.7747 55.2615 17.877 52.7707C14.7451 50.0786 12.7946 46.3088 12.3846 42.1556C11.9745 38.0015 13.1511 33.9207 15.6977 30.6651C18.3623 27.2587 22.1865 25.1126 26.4659 24.6224C29.7096 24.2509 32.9264 22.9806 35.7684 20.9489C39.0634 18.5936 42.9484 17.3366 47.0035 17.314L47.113 17.3138C57.7614 17.3138 66.5452 26.008 66.6934 36.6945C66.767 42.0007 64.7652 47.0021 61.0567 50.7777C57.3477 54.5538 52.3961 56.6335 47.1141 56.6335L42.0231 56.6332C37.0263 56.6325 30.5182 56.632 28.2836 56.6333Z" fill="#FBB731"/>
<path d="M46.7748 36.9456C48.2788 35.4855 49.2724 34.521 48.8864 32.3793C48.5547 30.5388 48.7911 28.6887 49.5888 26.8805C50.4544 24.919 52.228 23.535 54.3333 23.1783C56.4566 22.8185 58.6067 23.5499 60.0851 25.1342C62.6451 27.8768 64.214 31.2222 64.6219 34.8087C64.6937 35.4396 64.2407 36.0091 63.6101 36.081C62.9792 36.152 62.4101 35.6996 62.3384 35.0688C61.9864 31.9757 60.6266 29.0829 58.4053 26.7032C57.4409 25.6701 56.0968 25.2116 54.717 25.4454C53.3552 25.676 52.2525 26.5375 51.6915 27.809C51.0821 29.1901 50.8993 30.5905 51.1482 31.9714C51.7513 35.3183 49.9578 37.0595 48.3753 38.5957C46.7532 40.1705 45.0759 41.7988 45.0759 45.5017V45.8273C45.0759 47.4601 45.8281 48.956 47.1398 49.9316C48.4329 50.8932 50.054 51.1803 51.588 50.7187C56.1143 49.3566 59.2691 46.9322 60.9651 43.5125C61.2472 42.9436 61.9368 42.7111 62.5052 42.9935C63.0736 43.2756 63.306 43.9655 63.0239 44.5342C61.0623 48.4897 57.3368 51.3896 52.2502 52.9203C51.5487 53.1314 50.835 53.2353 50.1274 53.2353C48.5788 53.2353 47.0606 52.7375 45.7685 51.7766C43.8676 50.3629 42.7775 48.1944 42.7775 45.8272V45.5016C42.7777 40.8258 44.9939 38.6744 46.7748 36.9456Z" fill="#FBB731"/>
<path fill-rule="evenodd" clip-rule="evenodd" d="M23.6931 40.7803C22.2666 39.8604 20.8694 39.2707 19.5404 39.0275C18.3023 38.8013 17.0413 39.2265 16.1659 40.1653C15.2804 41.1149 14.9146 42.4484 15.187 43.7326C15.8228 46.7303 17.3454 49.3619 19.5898 51.3428C22.0472 53.5117 25.178 54.7059 28.4055 54.7059H28.4133C30.1127 54.7048 34.3066 54.7049 38.403 54.7053C39.3701 54.7054 40.2719 54.2135 40.8155 53.3896C41.3594 52.5655 41.4717 51.5196 41.1161 50.592C40.6186 49.2941 40.2304 47.9161 39.9625 46.4959C39.6043 44.597 40.2158 42.6793 40.792 41.405C41.1517 40.6096 40.9878 39.7033 40.3745 39.0961C39.7621 38.4898 38.8784 38.3576 38.1231 38.7596C33.6426 41.1436 27.9536 43.5277 23.6931 40.7803ZM21.0751 49.555C19.2113 47.91 17.9466 45.7228 17.4178 43.2296C17.3067 42.7066 17.4505 42.1841 17.8122 41.7961C18.1638 41.4191 18.6486 41.2547 19.1414 41.3448C20.1811 41.535 21.305 42.0164 22.4823 42.7756C24.8537 44.3051 27.7599 44.7257 31.1191 44.0261C33.7978 43.4684 36.4206 42.2707 38.3652 41.2723C37.6157 43.2575 37.3927 45.2027 37.7214 46.9451C38.016 48.5071 38.4439 50.025 38.993 51.4571C39.1047 51.7484 38.9847 51.9799 38.9279 52.066C38.8575 52.1727 38.6959 52.3517 38.4036 52.3517L33.4783 52.3515C31.2775 52.3515 29.4129 52.3517 28.4123 52.3523H28.4057C25.7221 52.3523 23.1191 51.3589 21.0751 49.555Z" fill="#FBB731"/>
<path fill-rule="evenodd" clip-rule="evenodd" d="M27.1352 31.5549C26.8683 32.1097 26.858 32.7538 27.1072 33.322C27.3565 33.8908 27.8389 34.3229 28.4307 34.5074L35.4608 36.7005C37.3082 37.2768 39.2781 36.7611 40.5995 35.3553L40.6137 35.3402C43.125 32.6869 44.4325 29.1993 44.2955 25.5196C44.2423 24.0882 43.9643 22.6801 43.4692 21.3342C43.3258 20.9444 42.9847 20.6602 42.5766 20.59C42.1685 20.5198 41.7565 20.6749 41.4982 20.9961C40.2917 22.4964 38.5875 23.9675 34.3212 24.5704C33.098 24.7432 32.0045 25.3366 31.0494 26.1379C29.2157 27.6764 27.8918 29.9821 27.1352 31.5549ZM38.9279 33.7665C38.2013 34.5389 37.1283 34.8214 36.123 34.5079L29.296 32.3781C30.0037 30.9515 32.0928 27.2084 34.6634 26.845C37.7813 26.4045 40.0321 25.5168 41.8274 23.97C41.9248 24.5015 41.9838 25.0401 42.0041 25.5828C42.1181 28.6438 41.0308 31.5447 38.9424 33.7511L38.9279 33.7665Z" fill="#FBB731"/>
<path d="M38.0426 62.7941C38.3309 62.7941 38.6116 62.911 38.8158 63.1172C39.0188 63.3224 39.1357 63.6058 39.1357 63.897C39.1357 64.1871 39.0189 64.4716 38.8158 64.6767C38.6116 64.8818 38.3309 64.9999 38.0426 64.9999C37.7554 64.9999 37.4747 64.8819 37.2715 64.6767C37.0674 64.4705 36.9506 64.1871 36.9506 63.897C36.9506 63.6069 37.0674 63.3224 37.2715 63.1172C37.4747 62.911 37.7554 62.7941 38.0426 62.7941Z" fill="#FBB731"/>
<path d="M61.7162 39.6318C61.7162 39.3416 61.8331 39.0569 62.0363 38.8516C62.2395 38.6464 62.5214 38.5294 62.8088 38.5294C63.0972 38.5294 63.3791 38.6464 63.5812 38.8516C63.7856 39.058 63.9014 39.3416 63.9014 39.6318C63.9014 39.9231 63.7856 40.2067 63.5812 40.412C63.378 40.6183 63.0971 40.7353 62.8088 40.7353C62.5214 40.7353 62.2395 40.6183 62.0363 40.412C61.8331 40.2078 61.7162 39.9231 61.7162 39.6318Z" fill="#FBB731"/>
</svg>
