<svg width="195" height="30" viewBox="0 0 195 30" fill="none" xmlns="http://www.w3.org/2000/svg">
<rect width="22" height="30" fill="#FBB731"/>
<path fill-rule="evenodd" clip-rule="evenodd" d="M21.2143 4H22.7857C28.4242 4.00679 32.9935 8.78378 33 14.6786C33 15.1322 32.6482 15.5 32.2143 15.5H11.7857C11.3518 15.5 11 15.1322 11 14.6786C11.0065 8.78378 15.5758 4.00679 21.2143 4ZM21.2142 5.64284C16.7474 5.64842 13.0184 9.20709 12.6068 13.8571H31.3932C30.9816 9.20704 27.2526 5.64842 22.7857 5.64284H21.2142Z" fill="white"/>
<path fill-rule="evenodd" clip-rule="evenodd" d="M29.0714 20.488H32.2143C32.6483 20.488 33 20.8525 33 21.3021V22.9301C32.9974 25.1768 31.2401 26.9974 29.0714 27.0001H14.9286C12.7599 26.9974 11.0026 25.1768 11 22.9301V21.3021C11 20.8525 11.3518 20.488 11.7857 20.488H22.7857C22.9557 20.488 23.1211 20.5451 23.2571 20.6508L25.9286 22.7265L28.6 20.6508C28.736 20.5452 28.9014 20.488 29.0714 20.488ZM29.0714 25.3721C30.3733 25.3721 31.4286 24.2788 31.4286 22.9301V22.116H29.3331L26.4 24.3953C26.1206 24.6123 25.7365 24.6123 25.4571 24.3953L22.524 22.116H12.5714V22.9301C12.5714 24.2788 13.6267 25.3721 14.9286 25.3721H29.0714Z" fill="white"/>
<path d="M32.2143 17.1626H11.7857C11.3518 17.1626 11 17.5348 11 17.9939C11 18.453 11.3518 18.8252 11.7857 18.8252H32.2143C32.6482 18.8252 33 18.453 33 17.9939C33 17.5347 32.6482 17.1626 32.2143 17.1626Z" fill="white"/>
<path d="M18.0242 8.84937C17.585 8.84937 17.229 9.22155 17.229 9.68069V10.512C17.229 10.9712 17.585 11.3433 18.0242 11.3433C18.4634 11.3433 18.8194 10.9712 18.8194 10.512V9.68069C18.8194 9.22155 18.4634 8.84937 18.0242 8.84937Z" fill="white"/>
<path d="M22 8.84937C21.5608 8.84937 21.2048 9.22155 21.2048 9.68069V10.512C21.2048 10.9712 21.5608 11.3433 22 11.3433C22.4392 11.3433 22.7952 10.9711 22.7952 10.512V9.68064C22.7952 9.22155 22.4392 8.84937 22 8.84937Z" fill="white"/>
<path d="M25.9758 8.84937C25.5367 8.84937 25.1807 9.22155 25.1807 9.68069V10.512C25.1807 10.9712 25.5367 11.3433 25.9758 11.3433C26.415 11.3433 26.771 10.9712 26.771 10.512V9.68069C26.771 9.22155 26.415 8.84937 25.9758 8.84937Z" fill="white"/>
<path d="M60.552 14.24C61.528 14.528 62.28 15.032 62.808 15.752C63.352 16.456 63.624 17.328 63.624 18.368C63.624 19.792 63.096 20.92 62.04 21.752C61 22.584 59.56 23 57.72 23H49.68V6.08H57.48C59.24 6.08 60.632 6.472 61.656 7.256C62.696 8.04 63.216 9.112 63.216 10.472C63.216 11.352 62.976 12.128 62.496 12.8C62.032 13.456 61.384 13.936 60.552 14.24ZM53.328 12.968H56.856C57.816 12.968 58.52 12.808 58.968 12.488C59.432 12.152 59.664 11.648 59.664 10.976C59.664 10.272 59.432 9.76 58.968 9.44C58.52 9.104 57.816 8.936 56.856 8.936H53.328V12.968ZM57.288 20.144C58.28 20.144 59 19.976 59.448 19.64C59.896 19.304 60.12 18.76 60.12 18.008C60.12 17.256 59.896 16.704 59.448 16.352C59 16 58.28 15.824 57.288 15.824H53.328V20.144H57.288ZM73.4029 23.216C71.0349 23.216 69.2269 22.608 67.9789 21.392C66.7469 20.16 66.1309 18.368 66.1309 16.016V6.08H69.8029V16.184C69.8029 17.528 70.1069 18.552 70.7149 19.256C71.3389 19.96 72.2349 20.312 73.4029 20.312C74.5709 20.312 75.4669 19.96 76.0909 19.256C76.7149 18.536 77.0269 17.512 77.0269 16.184V6.08H80.6989V16.016C80.6989 18.352 80.0749 20.136 78.8269 21.368C77.5789 22.6 75.7709 23.216 73.4029 23.216ZM98.6571 23H94.5771L91.6491 17.6C91.4091 17.184 91.1211 16.888 90.7851 16.712C90.4491 16.52 90.0251 16.424 89.5131 16.424H87.6651V23H83.9691V6.08H91.7451C93.7291 6.08 95.2251 6.52 96.2331 7.4C97.2571 8.264 97.7691 9.52 97.7691 11.168C97.7691 12.448 97.4091 13.52 96.6891 14.384C95.9851 15.248 94.9851 15.816 93.6891 16.088C94.5691 16.312 95.3131 16.944 95.9211 17.984L98.6571 23ZM91.1931 13.592C92.2651 13.592 93.0411 13.408 93.5211 13.04C94.0011 12.656 94.2411 12.064 94.2411 11.264C94.2411 10.448 94.0011 9.856 93.5211 9.488C93.0411 9.12 92.2651 8.936 91.1931 8.936H87.6171V13.592H91.1931ZM115.224 13.664V21.944C114.408 22.344 113.448 22.656 112.344 22.88C111.24 23.104 110.104 23.216 108.936 23.216C107.144 23.216 105.592 22.872 104.28 22.184C102.968 21.48 101.96 20.48 101.256 19.184C100.552 17.872 100.2 16.32 100.2 14.528C100.2 12.768 100.544 11.24 101.232 9.944C101.936 8.632 102.936 7.624 104.232 6.92C105.528 6.216 107.04 5.864 108.768 5.864C109.984 5.864 111.112 6.032 112.152 6.368C113.208 6.704 114.08 7.168 114.768 7.76L113.592 10.424C112.808 9.864 112.04 9.464 111.288 9.224C110.552 8.968 109.752 8.84 108.888 8.84C105.624 8.84 103.992 10.736 103.992 14.528C103.992 16.48 104.416 17.936 105.264 18.896C106.112 19.856 107.392 20.336 109.104 20.336C110.032 20.336 110.952 20.216 111.864 19.976V16.256H108.552V13.664H115.224ZM126.175 23.216C124.495 23.216 123.031 22.864 121.783 22.16C120.551 21.44 119.599 20.432 118.927 19.136C118.255 17.824 117.919 16.288 117.919 14.528C117.919 12.768 118.255 11.24 118.927 9.944C119.599 8.632 120.551 7.624 121.783 6.92C123.031 6.216 124.495 5.864 126.175 5.864C127.855 5.864 129.311 6.216 130.543 6.92C131.791 7.624 132.751 8.632 133.423 9.944C134.095 11.24 134.431 12.768 134.431 14.528C134.431 16.288 134.095 17.824 133.423 19.136C132.751 20.432 131.791 21.44 130.543 22.16C129.311 22.864 127.855 23.216 126.175 23.216ZM126.175 20.312C127.583 20.312 128.687 19.816 129.487 18.824C130.303 17.832 130.711 16.4 130.711 14.528C130.711 12.656 130.311 11.232 129.511 10.256C128.711 9.264 127.599 8.768 126.175 8.768C124.751 8.768 123.639 9.264 122.839 10.256C122.055 11.232 121.663 12.656 121.663 14.528C121.663 16.4 122.063 17.832 122.863 18.824C123.663 19.816 124.767 20.312 126.175 20.312ZM143.217 23.216C141.937 23.216 140.705 23.048 139.521 22.712C138.337 22.36 137.353 21.88 136.569 21.272L137.769 18.608C139.401 19.744 141.233 20.312 143.265 20.312C144.321 20.312 145.129 20.144 145.689 19.808C146.265 19.456 146.553 18.976 146.553 18.368C146.553 17.824 146.289 17.4 145.761 17.096C145.249 16.792 144.329 16.496 143.001 16.208C141.513 15.904 140.321 15.536 139.425 15.104C138.545 14.672 137.897 14.144 137.481 13.52C137.081 12.88 136.881 12.096 136.881 11.168C136.881 10.144 137.161 9.232 137.721 8.432C138.297 7.632 139.097 7.008 140.121 6.56C141.145 6.096 142.329 5.864 143.673 5.864C144.873 5.864 146.025 6.04 147.129 6.392C148.249 6.744 149.137 7.216 149.793 7.808L148.593 10.472C147.041 9.336 145.409 8.768 143.697 8.768C142.721 8.768 141.953 8.96 141.393 9.344C140.833 9.712 140.553 10.224 140.553 10.88C140.553 11.264 140.657 11.584 140.865 11.84C141.089 12.08 141.449 12.296 141.945 12.488C142.457 12.68 143.177 12.88 144.105 13.088C146.281 13.568 147.841 14.184 148.785 14.936C149.745 15.688 150.225 16.728 150.225 18.056C150.225 19.656 149.609 20.92 148.377 21.848C147.145 22.76 145.425 23.216 143.217 23.216Z" fill="white"/>
</svg>
