<svg width="33" height="30" viewBox="0 0 33 30" fill="none" xmlns="http://www.w3.org/2000/svg">
<g clip-path="url(#clip0_0_3)">
<rect width="33" height="30" fill="#1B2A49"/>
<path d="M22 0H0V30H22V0Z" fill="#FBB731"/>
<path fill-rule="evenodd" clip-rule="evenodd" d="M21.2143 4H22.7857C28.4242 4.00679 32.9935 8.78378 33 14.6786C33 15.1322 32.6482 15.5 32.2143 15.5H11.7857C11.3518 15.5 11 15.1322 11 14.6786C11.0065 8.78378 15.5758 4.00679 21.2143 4ZM21.2142 5.64284C16.7474 5.64842 13.0184 9.20709 12.6068 13.8571H31.3932C30.9816 9.20704 27.2526 5.64842 22.7857 5.64284H21.2142Z" fill="white"/>
<path fill-rule="evenodd" clip-rule="evenodd" d="M29.0714 20.488H32.2143C32.6483 20.488 33 20.8525 33 21.3021V22.9301C32.9974 25.1768 31.2401 26.9974 29.0714 27.0001H14.9286C12.7599 26.9974 11.0026 25.1768 11 22.9301V21.3021C11 20.8525 11.3518 20.488 11.7857 20.488H22.7857C22.9557 20.488 23.1211 20.5451 23.2571 20.6508L25.9286 22.7265L28.6 20.6508C28.736 20.5452 28.9014 20.488 29.0714 20.488ZM29.0714 25.3721C30.3733 25.3721 31.4286 24.2788 31.4286 22.9301V22.116H29.3331L26.4 24.3953C26.1206 24.6123 25.7365 24.6123 25.4571 24.3953L22.524 22.116H12.5714V22.9301C12.5714 24.2788 13.6267 25.3721 14.9286 25.3721H29.0714Z" fill="white"/>
<path d="M32.2143 17.1626H11.7857C11.3518 17.1626 11 17.5348 11 17.9939C11 18.453 11.3518 18.8252 11.7857 18.8252H32.2143C32.6482 18.8252 33 18.453 33 17.9939C33 17.5347 32.6482 17.1626 32.2143 17.1626Z" fill="white"/>
<path d="M18.0242 8.84937C17.585 8.84937 17.229 9.22155 17.229 9.68069V10.512C17.229 10.9712 17.585 11.3433 18.0242 11.3433C18.4634 11.3433 18.8194 10.9712 18.8194 10.512V9.68069C18.8194 9.22155 18.4634 8.84937 18.0242 8.84937Z" fill="white"/>
<path d="M22 8.84937C21.5608 8.84937 21.2048 9.22155 21.2048 9.68069V10.512C21.2048 10.9712 21.5608 11.3433 22 11.3433C22.4392 11.3433 22.7952 10.9711 22.7952 10.512V9.68064C22.7952 9.22155 22.4392 8.84937 22 8.84937Z" fill="white"/>
<path d="M25.9758 8.84937C25.5367 8.84937 25.1807 9.22155 25.1807 9.68069V10.512C25.1807 10.9712 25.5367 11.3433 25.9758 11.3433C26.415 11.3433 26.771 10.9712 26.771 10.512V9.68069C26.771 9.22155 26.415 8.84937 25.9758 8.84937Z" fill="white"/>
</g>
<defs>
<clipPath id="clip0_0_3">
<rect width="33" height="30" fill="white"/>
</clipPath>
</defs>
</svg>
