<svg width="32" height="32" viewBox="0 0 32 32" fill="none" xmlns="http://www.w3.org/2000/svg">
<path d="M32 25.1426C32 26.1873 31.1531 27.0343 30.1084 27.0343H1.89156C0.846875 27.0343 0 26.1873 0 25.1426V6.85732C0 5.81264 0.846875 4.9657 1.89156 4.9657H30.1084C31.1532 4.9657 32 5.81264 32 6.85732V25.1426Z" fill="#306FC5"/>
<path opacity="0.15" d="M1.34481 25.1426V6.85732C1.34481 5.81264 2.19181 4.9657 3.2365 4.9657H1.8915C0.846875 4.9657 0 5.81257 0 6.85732V25.1426C0 26.1874 0.846875 27.0343 1.89156 27.0343H3.23656C2.19187 27.0343 1.34481 26.1873 1.34481 25.1426Z" fill="#202121"/>
<path d="M4.66211 13.7967H5.61823L5.1403 12.5799L4.66211 13.7967Z" fill="white"/>
<path d="M9.74609 17.8817V18.4468H11.3542V19.0553H9.74609V19.7074H11.5279L12.3536 18.7945L11.5714 17.8817H9.74609Z" fill="white"/>
<path d="M22.3067 12.5799L21.7852 13.7967H22.7848L22.3067 12.5799Z" fill="white"/>
<path d="M14.3976 20.0547V17.5776L13.2676 18.7945L14.3976 20.0547Z" fill="white"/>
<path d="M16.5266 18.273C16.4831 18.0123 16.3091 17.8817 16.0482 17.8817H15.1357V18.664H16.0919C16.3526 18.664 16.5266 18.5337 16.5266 18.273Z" fill="white"/>
<path d="M19.5684 18.5773C19.6553 18.5337 19.6989 18.4032 19.6989 18.2731C19.7424 18.0994 19.6553 18.0123 19.5684 17.9688C19.4817 17.9253 19.3511 17.9253 19.2209 17.9253H18.3516V18.6208H19.2209C19.3511 18.6208 19.4816 18.6208 19.5684 18.5773Z" fill="white"/>
<path d="M25.8262 11.4499V11.9714L25.5656 11.4499H23.5233V11.9714L23.2624 11.4499H20.481C20.003 11.4499 19.6117 11.5369 19.2642 11.7107V11.4499H17.3086V11.4934V11.7107C17.0914 11.537 16.8306 11.4499 16.4829 11.4499H9.48606L9.00781 12.5364L8.52987 11.4499H6.96544H6.3135V11.9714L6.09619 11.4499H6.05269H4.184L3.31469 13.4924L2.31525 15.7088L2.29688 15.7523H2.31525H4.53169H4.55944L4.57519 15.7088L4.83606 15.057H5.401L5.66175 15.7523H8.18213V15.7088V15.2308L8.39956 15.7523H9.65975L9.87694 15.2308V15.7088V15.7523H10.8765H15.8743H15.9178V14.6223H16.0049C16.0918 14.6223 16.0918 14.6223 16.0918 14.7528V15.7088H19.2208V15.4481C19.4816 15.5786 19.8724 15.7088 20.394 15.7088H21.6979L21.9587 15.0136H22.5669L22.8277 15.7088H25.3482V15.2743V15.0571L25.7395 15.7088H25.8262H25.8698H27.782V11.4499H25.8263H25.8262ZM11.0939 15.1006H10.6593H10.3986V14.84V12.7103L10.3551 12.81V12.8088L9.34406 15.1006H9.31206H9.07963H8.70356L7.66062 12.7103V15.1006H6.18313L5.87894 14.4487H4.40119L4.09694 15.1006H3.333L4.61863 12.0584H5.705L6.92181 14.9701V12.0584H7.1825H8.07319L8.09369 12.102H8.09519L8.6435 13.2953L9.03725 14.1895L9.05119 14.1444L9.92031 12.0585H11.0939V15.1006H11.0939ZM14.0927 12.7103H12.3977V13.2752H14.0492V13.8836H12.3977V14.4922H14.0927V15.1439H11.659V12.0585H14.0927V12.7103ZM17.1924 13.8309C17.1935 13.8319 17.1949 13.8326 17.1963 13.8335C17.2128 13.8509 17.2268 13.8683 17.2388 13.885C17.3221 13.9941 17.3894 14.1565 17.3928 14.3945C17.393 14.3986 17.3932 14.4026 17.3934 14.4068C17.3934 14.4091 17.3939 14.4112 17.3939 14.4136C17.3939 14.415 17.3938 14.4161 17.3938 14.4174C17.3948 14.4413 17.3954 14.4658 17.3954 14.4922V15.1006H16.7436V14.7528C16.7436 14.579 16.7436 14.3182 16.6131 14.1444C16.572 14.1033 16.5304 14.0763 16.4852 14.057C16.4201 14.0148 16.2966 14.0141 16.0918 14.0141H15.3092V15.1006H14.5706V12.0585H16.2222C16.6131 12.0585 16.8739 12.0585 17.0913 12.1888C17.3043 12.3167 17.4329 12.5288 17.4378 12.8646C17.4277 13.3271 17.1308 13.5808 16.9174 13.6664C16.9174 13.6664 17.0624 13.6956 17.1924 13.8309ZM18.6558 15.1006H17.9169V12.0584H18.6558V15.1006ZM27.1303 15.1006H26.1741L24.7834 12.7971V14.7093L24.7789 14.7048V15.1025H24.0447V15.1006H23.3058L23.0451 14.4488H21.5239L21.2631 15.144H20.4374C20.09 15.144 19.6551 15.0571 19.3945 14.7964C19.1338 14.5356 19.0035 14.188 19.0035 13.6231C19.0035 13.1885 19.0903 12.7536 19.3945 12.4061C19.6116 12.1451 20.0029 12.0585 20.4809 12.0585H21.1764V12.7103H20.4809C20.2201 12.7103 20.09 12.7536 19.9158 12.8842C19.7857 13.0145 19.6987 13.2752 19.6987 13.5794C19.6987 13.9271 19.7422 14.1444 19.9158 14.3182C20.0465 14.4488 20.2202 14.4923 20.4374 14.4923H20.7416L21.7411 12.1021H22.1759H22.8276L24.0446 15.0138V14.8653V13.8837V13.7969V12.1021H25.131L26.3911 14.2315V12.1021H27.1302V15.1007H27.1303V15.1006Z" fill="white"/>
<path d="M16.5721 13.3255C16.5848 13.3119 16.5963 13.2965 16.606 13.2789C16.6454 13.2166 16.6905 13.1043 16.6662 12.9511C16.6652 12.9371 16.6627 12.9241 16.6597 12.9115C16.6589 12.908 16.659 12.905 16.658 12.9015L16.6576 12.9015C16.636 12.8271 16.5808 12.7813 16.5257 12.7536C16.4386 12.7103 16.3082 12.7103 16.1779 12.7103H15.3086V13.4057H16.1779C16.3082 13.4057 16.4387 13.4057 16.5257 13.3621C16.5388 13.3555 16.5504 13.3465 16.5616 13.3363L16.5617 13.3369C16.5618 13.3368 16.5662 13.3322 16.5721 13.3255Z" fill="white"/>
<path d="M29.6936 19.4465C29.6936 19.1423 29.6068 18.838 29.4765 18.6208V16.6652H29.4745V16.5346C29.4745 16.5346 27.6529 16.5346 27.3818 16.5346C27.1108 16.5346 26.7819 16.7953 26.7819 16.7953V16.5346H24.7829C24.4785 16.5346 24.0877 16.6216 23.9136 16.7953V16.5346H20.3501V16.6652V16.7953C20.0895 16.5781 19.6111 16.5346 19.394 16.5346H17.0472V16.6651V16.7952C16.8299 16.5781 16.3082 16.5345 16.0473 16.5345H13.4402L12.8316 17.1865L12.2666 16.5345H12.0847H11.7886H8.35547V16.6651V17.0084V20.9241H12.1798L12.8082 20.2955L13.3529 20.9241H13.3965H15.6002H15.7H15.7435H15.7868V20.4895V19.9246H16.0042C16.3082 19.9246 16.6995 19.9246 17.0037 19.794V20.8804V20.9675H18.9593V20.8804V19.8375H19.046C19.1766 19.8375 19.1766 19.8375 19.1766 19.9679V20.8804V20.9675H25.0868C25.4782 20.9675 25.8691 20.8804 26.0863 20.7066V20.8804V20.9675H27.9552C28.3461 20.9675 28.7375 20.9241 28.9983 20.7501C29.3984 20.5101 29.6506 20.0851 29.6881 19.5783C29.6898 19.5633 29.692 19.5483 29.6934 19.5333L29.6908 19.5308C29.6925 19.5027 29.6936 19.4749 29.6936 19.4465ZM16.0043 19.1858H15.1349V19.3159V19.5768V19.8376V20.3156H13.7065L12.8751 19.3595L12.8722 19.3626L12.8316 19.3159L11.8755 20.3156H9.09422V17.2736H11.919L12.6908 18.1189L12.853 18.2959L12.875 18.2731L13.7878 17.2736H16.091C16.538 17.2736 17.0386 17.384 17.2283 17.8388C17.2511 17.9288 17.2643 18.029 17.2643 18.1427C17.2643 19.0118 16.6559 19.1858 16.0043 19.1858ZM20.3501 19.1423C20.4369 19.2723 20.4804 19.4465 20.4804 19.7073V20.3156H19.7417V19.9246C19.7417 19.7505 19.7417 19.4465 19.6112 19.3159C19.5245 19.1858 19.3504 19.1858 19.0898 19.1858H18.3077V20.3156H17.5689V17.2301H19.2202C19.5677 17.2301 19.8718 17.2301 20.0895 17.3603C20.3067 17.4908 20.4804 17.7081 20.4804 18.0558C20.4804 18.5338 20.1763 18.7945 19.959 18.8816C20.1763 18.9681 20.3067 19.0553 20.3501 19.1423ZM23.3488 17.8817H21.6537V18.4467H23.3052V19.0553H21.6537V19.6638H23.3488V20.3156H20.9152V17.23H23.3488V17.8817ZM25.174 20.3156H23.7832V19.6638H25.174C25.3041 19.6638 25.3912 19.6638 25.4783 19.5768C25.5218 19.5333 25.565 19.4465 25.565 19.3595C25.565 19.2724 25.5218 19.1859 25.4783 19.1423C25.4347 19.0989 25.3477 19.0554 25.2173 19.0554C24.522 19.0119 23.6963 19.0554 23.6963 18.0994C23.6963 17.6648 23.957 17.1866 24.7393 17.1866H26.1734V17.9253H24.8263C24.696 17.9253 24.6089 17.9253 24.5219 17.9688C24.4352 18.0124 24.4352 18.0994 24.4352 18.1862C24.4352 18.3166 24.5219 18.3601 24.6088 18.4033C24.696 18.4468 24.7828 18.4468 24.8696 18.4468H25.2608C25.652 18.4468 25.9127 18.5338 26.0865 18.7076C26.2169 18.8381 26.3038 19.0554 26.3038 19.3595C26.3038 20.0112 25.9127 20.3156 25.174 20.3156ZM28.9114 20.0112C28.7378 20.1853 28.4334 20.3156 27.9987 20.3156H26.6083V19.6638H27.9986C28.129 19.6638 28.2162 19.6638 28.303 19.5768C28.3463 19.5333 28.3899 19.4465 28.3899 19.3595C28.3899 19.2724 28.3463 19.1859 28.303 19.1423C28.2595 19.0989 28.1727 19.0554 28.0422 19.0554C27.3471 19.0119 26.5212 19.0554 26.5212 18.0995C26.5212 17.6864 26.7575 17.3133 27.3403 17.2025C27.41 17.1928 27.4836 17.1866 27.5642 17.1866H28.9985V17.9253H28.0422H27.6947H27.6512C27.5207 17.9253 27.4339 17.9253 27.3471 17.9688C27.3033 18.0124 27.2598 18.0994 27.2598 18.1862C27.2598 18.3166 27.3033 18.3601 27.4339 18.4033C27.5207 18.4468 27.6077 18.4468 27.6947 18.4468H27.7378H28.0857C28.2756 18.4468 28.4192 18.4703 28.5507 18.5165C28.671 18.56 29.0695 18.7383 29.1587 19.2036C29.1664 19.2523 29.1721 19.3032 29.1721 19.3595C29.1721 19.6203 29.0852 19.8376 28.9114 20.0112Z" fill="white"/>
</svg>
