<svg width="32" height="32" viewBox="0 0 32 32" fill="none" xmlns="http://www.w3.org/2000/svg">
<path d="M32 25.1426C32 26.1874 31.1531 27.0343 30.1084 27.0343H1.89156C0.846875 27.0343 0 26.1873 0 25.1426V6.85732C0 5.81257 0.846875 4.9657 1.89156 4.9657H30.1084C31.1531 4.9657 31.9999 5.81264 31.9999 6.85732L32 25.1426Z" fill="#E7E8E3"/>
<path opacity="0.15" d="M1.34481 25.1426V6.85732C1.34481 5.81257 2.19181 4.9657 3.2365 4.9657H1.8915C0.846875 4.9657 0 5.8127 0 6.85732V25.1426C0 26.1874 0.846875 27.0343 1.89156 27.0343H3.23656C2.19187 27.0343 1.34481 26.1873 1.34481 25.1426Z" fill="#202121"/>
<path d="M14.0449 13.6994C14.0449 12.0443 14.8073 10.5676 16 9.60062C15.0935 8.86568 13.9387 8.4248 12.6808 8.4248C9.76775 8.4248 7.40625 10.7862 7.40625 13.6994C7.40625 16.6124 9.76775 18.9738 12.6808 18.9738C13.9387 18.9738 15.0935 18.5332 16 17.7984C14.8073 16.831 14.0449 15.3544 14.0449 13.6994Z" fill="#EA001B"/>
<path d="M19.3193 8.42474C18.0614 8.42474 16.9065 8.86555 16 9.60055C17.1927 10.5675 17.9551 12.0442 17.9551 13.6994C17.9551 15.3543 17.1927 16.831 16 17.7982C16.9065 18.5331 18.0614 18.9737 19.3193 18.9737C22.2324 18.9737 24.5938 16.6123 24.5938 13.6993C24.5938 10.7863 22.2324 8.42474 19.3193 8.42474Z" fill="#0099DF"/>
<path d="M17.9551 13.6995C17.9551 12.0443 17.1927 10.5676 16 9.60065C14.8073 10.5676 14.0449 12.0443 14.0449 13.6995C14.0449 15.3544 14.8073 16.8311 16 17.7983C17.1927 16.831 17.9551 15.3544 17.9551 13.6995Z" fill="#6C6BBD"/>
<path d="M7.88193 21.2892C7.48605 21.2892 7.10662 21.4993 6.85787 21.8541C6.60012 21.4943 6.22962 21.2892 5.83437 21.2892C5.5973 21.2892 5.33543 21.398 5.11018 21.5893L5.00287 21.3908C4.99687 21.3797 4.98505 21.3726 4.9723 21.3726H4.31899C4.29987 21.3726 4.28418 21.3882 4.28418 21.4074V24.4077C4.28418 24.4268 4.2998 24.4425 4.31899 24.4425H5.12712C5.14637 24.4425 5.16193 24.4269 5.16193 24.4077V22.6857C5.25187 22.3428 5.47024 22.1383 5.7468 22.1383C6.08993 22.1383 6.35849 22.4808 6.35849 22.918V24.4077C6.35849 24.4268 6.37412 24.4425 6.3933 24.4425H7.14768C7.16693 24.4425 7.18249 24.4269 7.18249 24.4077V22.8704C7.19518 22.5183 7.43005 22.1383 7.78762 22.1383C8.13074 22.1383 8.3993 22.4807 8.3993 22.918V24.4077C8.3993 24.4268 8.41493 24.4425 8.43412 24.4425H9.18849C9.20774 24.4425 9.2233 24.4269 9.2233 24.4077V22.918C9.22318 22.0198 8.62162 21.2892 7.88193 21.2892Z" fill="#34495E"/>
<path d="M12.8991 21.3727H12.2526C12.2366 21.3727 12.2224 21.3838 12.2188 21.3995L12.1645 21.6298C11.889 21.4052 11.5446 21.2823 11.1884 21.2823C10.3188 21.2823 9.61133 22.0099 9.61133 22.9042C9.61133 23.7985 10.3188 24.5262 11.1884 24.5262C11.5386 24.5262 11.8774 24.4072 12.1505 24.1899V24.4079C12.1505 24.427 12.1661 24.4427 12.1853 24.4427H12.8991C12.9184 24.4427 12.934 24.4271 12.934 24.4079V21.4076C12.9338 21.3883 12.9183 21.3727 12.8991 21.3727ZM11.2962 23.6839C11.1033 23.6839 10.9256 23.6057 10.7835 23.459C10.6457 23.3031 10.5699 23.1061 10.5699 22.9042C10.5699 22.6985 10.6476 22.4966 10.7824 22.3505C10.9256 22.2027 11.1033 22.1245 11.2963 22.1245C11.4887 22.1245 11.6686 22.2045 11.8033 22.3505C11.9403 22.4921 12.0157 22.6887 12.0157 22.9042C12.0157 23.1161 11.942 23.3078 11.8028 23.4584C11.6685 23.6038 11.4886 23.6839 11.2962 23.6839Z" fill="#34495E"/>
<path d="M14.9463 21.2683C14.0768 21.2683 13.3691 21.999 13.3691 22.8972C13.3691 23.7954 14.0768 24.5261 14.9463 24.5261C15.4109 24.5261 15.8454 24.3185 16.1385 23.9563C16.1446 23.9488 16.1473 23.939 16.1459 23.9294C16.1445 23.9198 16.1392 23.9113 16.1312 23.9058L15.4981 23.4672C15.4841 23.4575 15.4653 23.4594 15.4533 23.4717C15.3227 23.6065 15.1503 23.6838 14.9799 23.6838C14.7917 23.6838 14.6215 23.6037 14.4874 23.4518C14.4291 23.3863 14.3818 23.3092 14.3436 23.2173H16.4616C16.4781 23.2173 16.4923 23.2058 16.4956 23.1897C16.5148 23.0978 16.5232 23.0075 16.5232 22.8972C16.5233 21.999 15.8159 21.2683 14.9463 21.2683ZM14.3283 22.6187C14.3683 22.5105 14.4229 22.4132 14.4869 22.336C14.6231 22.1885 14.7937 22.1106 14.98 22.1106C15.163 22.1106 15.34 22.1925 15.466 22.3357C15.537 22.4149 15.5921 22.512 15.627 22.6188L14.3283 22.6187Z" fill="#34495E"/>
<path d="M18.3994 22.5929C18.3333 22.5696 18.2679 22.5493 18.2058 22.53C17.9339 22.4455 17.7811 22.3908 17.8028 22.2472C17.8206 22.1065 17.9084 22.0322 18.0566 22.0322C18.2325 22.0322 18.4744 22.1392 18.7376 22.3335C18.7454 22.3392 18.7552 22.3414 18.7649 22.3397C18.7744 22.3378 18.7828 22.3321 18.7878 22.3237L19.1784 21.6904C19.1885 21.6741 19.1834 21.6527 19.1673 21.6425C18.776 21.3984 18.5001 21.2822 17.9904 21.2822C17.3832 21.2822 16.9252 21.6891 16.9252 22.2288C16.9252 22.8394 17.3502 23.024 17.9057 23.2017C18.1475 23.2797 18.3059 23.3449 18.3059 23.5305C18.3059 23.6708 18.2007 23.7545 18.0244 23.7545C17.8419 23.7545 17.5417 23.6517 17.2964 23.3618C17.29 23.3543 17.2807 23.3499 17.2709 23.3495C17.2617 23.3501 17.2516 23.3532 17.2446 23.3602L16.7059 23.924C16.693 23.9375 16.6931 23.9589 16.7061 23.9722C17.0514 24.3292 17.5506 24.5259 18.1117 24.5259C18.7007 24.5259 19.2174 24.0704 19.2174 23.5512C19.2174 23.1008 18.9187 22.7512 18.3994 22.5929Z" fill="#34495E"/>
<path d="M21.7149 21.3727H21.0762V20.2937C21.0762 20.2745 21.0607 20.2589 21.0414 20.2589H20.186C20.1669 20.2589 20.1512 20.2745 20.1512 20.2937V21.3727H19.5797C19.5606 21.3727 19.5449 21.3883 19.5449 21.4075V22.222C19.5449 22.2412 19.5605 22.2568 19.5797 22.2568H20.1512V24.4078C20.1512 24.427 20.1669 24.4427 20.186 24.4427H21.0414C21.0606 24.4427 21.0762 24.4271 21.0762 24.4078V22.2568H21.7149C21.7342 22.2568 21.7497 22.2413 21.7497 22.222V21.4075C21.7497 21.3883 21.7342 21.3727 21.7149 21.3727Z" fill="#34495E"/>
<path d="M24.5013 21.3817C24.3454 21.3257 24.1713 21.2962 23.9978 21.2962C23.5849 21.2962 23.235 21.4345 23.0263 21.6779L22.926 21.3958C22.9211 21.3819 22.908 21.3727 22.8932 21.3727H22.2399C22.2208 21.3727 22.2051 21.3882 22.2051 21.4075V24.4077C22.2051 24.4269 22.2207 24.4425 22.2399 24.4425H23.0818C23.101 24.4425 23.1166 24.427 23.1166 24.4077L23.116 22.7572C23.1804 22.404 23.4795 22.1478 23.8272 22.1478C23.9343 22.1478 24.0413 22.1717 24.1453 22.2187C24.1537 22.2227 24.1633 22.2228 24.1722 22.2195C24.1809 22.216 24.188 22.2093 24.1916 22.2007L24.5216 21.428C24.5253 21.4192 24.5253 21.4092 24.5215 21.4004C24.5177 21.3918 24.5103 21.3849 24.5013 21.3817Z" fill="#34495E"/>
<path d="M26.2608 21.2823C25.3579 21.2823 24.623 22.0099 24.623 22.9042C24.623 23.7985 25.3579 24.5262 26.2608 24.5262C27.183 24.5262 27.9052 23.8137 27.9052 22.9042C27.9052 22.0099 27.1676 21.2823 26.2608 21.2823ZM26.2675 23.6908C26.0759 23.6908 25.894 23.6089 25.7672 23.4647C25.6217 23.3144 25.548 23.1257 25.548 22.9042C25.548 22.687 25.6257 22.4906 25.7689 22.3489C25.8925 22.2019 26.0744 22.1175 26.2675 22.1175C26.4654 22.1175 26.638 22.1958 26.7809 22.35C26.9139 22.494 26.9871 22.6884 26.9871 22.8972C26.9871 23.113 26.9137 23.315 26.7814 23.4647C26.6361 23.6147 26.4632 23.6908 26.2675 23.6908Z" fill="#34495E"/>
</svg>
