<svg width="32" height="32" viewBox="0 0 32 32" fill="none" xmlns="http://www.w3.org/2000/svg">
<path d="M32 25.1426C32 26.1873 31.1531 27.0343 30.1084 27.0343H1.89156C0.846875 27.0343 0 26.1873 0 25.1426V6.85732C0 5.81257 0.846875 4.9657 1.89156 4.9657H30.1084C31.1532 4.9657 32 5.81264 32 6.85732V25.1426Z" fill="white"/>
<path d="M7.10238 16.1272L6.351 12.5227C6.22256 12.0257 5.84881 11.8778 5.38181 11.8582H1.93694L1.90625 12.0229C4.58931 12.6734 6.36462 14.2425 7.10238 16.1272Z" fill="#F79F1A"/>
<path d="M15.0847 11.9308H12.8589L11.4688 20.0887H13.6909L15.0847 11.9308Z" fill="#059BBF"/>
<path d="M8.45955 20.0805L11.9602 11.9363H9.60448L7.4268 17.5006L7.19436 16.6604C6.76748 15.6497 5.54748 14.1951 4.11523 13.2793L6.10586 20.0832L8.45955 20.0805Z" fill="#059BBF"/>
<path d="M21.4324 17.4219C21.4407 16.4957 20.846 15.7893 19.5645 15.2058C18.7857 14.8289 18.311 14.5776 18.3167 14.1951C18.3167 13.8573 18.7187 13.4943 19.5897 13.4943C20.3185 13.4831 20.8432 13.6423 21.2537 13.807L21.4548 13.8992L21.7564 12.1319C21.3152 11.9671 20.6256 11.7912 19.763 11.7912C17.5657 11.7912 16.019 12.8969 16.005 14.4827C15.991 15.6554 17.1107 16.3087 17.9538 16.6995C18.8192 17.0979 19.1096 17.3528 19.1041 17.7102C19.0985 18.2566 18.4144 18.5058 17.7751 18.5058C16.8844 18.5058 16.4125 18.383 15.6807 18.0781L15.3964 17.9475L15.084 19.7756C15.6029 20.0024 16.5632 20.2006 17.5601 20.2089C19.8968 20.2089 21.4157 19.1173 21.4324 17.4219Z" fill="#059BBF"/>
<path d="M24.0774 18.866C24.3315 18.866 26.6013 18.8688 26.9253 18.8688C26.9923 19.1528 27.1961 20.0916 27.1961 20.0916H29.2593L27.4585 11.9392H25.7415C25.2082 11.9392 24.8119 12.0844 24.5772 12.6148L21.2744 20.0916H23.6114C23.6112 20.0916 23.9909 19.0867 24.0774 18.866ZM25.6017 14.9153C25.5907 14.9377 25.7861 14.4435 25.8978 14.1364L26.0485 14.8399C26.0485 14.8399 26.473 16.7888 26.5622 17.1964H24.7167C24.901 16.7274 25.6017 14.9153 25.6017 14.9153Z" fill="#059BBF"/>
<path d="M30.1084 4.9657H1.89156C0.846875 4.9657 0 5.81257 0 6.85732V8.82057H32V6.85732C32 5.81257 31.1532 4.9657 30.1084 4.9657Z" fill="#059BBF"/>
<path d="M30.1084 27.0343H1.89156C0.846875 27.0343 0 26.1874 0 25.1427V23.1794H32V25.1427C32 26.1874 31.1532 27.0343 30.1084 27.0343Z" fill="#F79F1A"/>
<path opacity="0.15" d="M1.34481 25.1426V6.85732C1.34481 5.81257 2.19175 4.9657 3.2365 4.9657H1.8915C0.846875 4.9657 0 5.81257 0 6.85732V25.1426C0 26.1874 0.846875 27.0343 1.89156 27.0343H3.23656C2.19181 27.0343 1.34481 26.1873 1.34481 25.1426Z" fill="#202121"/>
</svg>
